# xmcd
#
# Track frame offsets:
#	225
#	14698
#	30125
#	43033
#	56456
#	71584
#	84587
#	98786
#	113117
#	128511
#	142154
#	156396
#
# Disc length: 2242 seconds
#
# Revision: 1
# Processed by: cddbd v1.4PL0 Copyright (c) Steve Scherf et al.
# Submitted via: dBpowerAMP V4.0
#
DISCID=9d08bf0c
DTITLE=Los reyes del camino - Con hambre de amor
DYEAR=1999
DGENRE=Folklore
TTITLE0=Hambre De Amor
TTITLE1=Tu Con El
TTITLE2=Ese Soy Yo
TTITLE3=Llora Tu Almohada
TTITLE4=Mira Que Ironia
TTITLE5=Querida Me Voy
TTITLE6=Ese
TTITLE7=Amigos Y Rivales
TTITLE8=Estrellita
TTITLE9=Contigo O Sin Ti
TTITLE10=Viento
TTITLE11=Tu Eres Mi Todo
EXTD=
EXTT0=
EXTT1=
EXTT2=
EXTT3=
EXTT4=
EXTT5=
EXTT6=
EXTT7=
EXTT8=
EXTT9=
EXTT10=
EXTT11=
PLAYORDER=
